<?xml version="1.0" standalone="no"?><!DOCTYPE svg PUBLIC "-//W3C//DTD SVG 1.1//EN" "http://www.w3.org/Graphics/SVG/1.1/DTD/svg11.dtd"><svg t="1601084503559" class="icon" viewBox="0 0 1024 1024" version="1.1" xmlns="http://www.w3.org/2000/svg" p-id="1912" xmlns:xlink="http://www.w3.org/1999/xlink" width="200" height="200"><defs><style type="text/css"></style></defs><path d="M258.10411 1021.194521c61.720548 0 119.232877-21.041096 158.509589-58.915069 39.276712-37.873973 63.123288-85.567123 63.123287-165.523288V224.438356c0-79.956164-23.846575-127.649315-63.123287-165.523288S319.824658 0 258.10411 0 137.468493 21.041096 98.191781 58.915068 35.068493 144.482192 35.068493 224.438356v572.317808c0 79.956164 23.846575 127.649315 63.123288 165.523288 39.276712 37.873973 98.191781 58.915068 159.912329 58.915069z m0-133.260274c-40.679452 0-74.345205-28.054795-74.345206-85.567124V218.827397c0-57.512329 33.665753-85.567123 74.345206-85.567123s72.942466 28.054795 72.942465 85.567123v583.539726c0 57.512329-32.263014 85.567123-72.942465 85.567124zM935.627397 1009.972603V11.221918H636.843836v173.939726h150.09315V1009.972603h148.690411z" fill="#15479E" opacity=".069" p-id="1913"></path><path d="M235.660274 590.553425c0 26.652055-9.819178 47.693151-29.457534 63.123287-19.638356 15.430137-46.290411 23.846575-81.358904 23.846576-32.263014 0-60.317808-5.610959-85.567124-18.235617v-58.915068c14.027397 5.610959 29.457534 11.221918 44.887672 16.832876 15.430137 5.610959 30.860274 8.416438 46.290411 8.416439 15.430137 0 26.652055-2.805479 33.665753-8.416439 7.013699-5.610959 9.819178-14.027397 9.819178-22.443835 0-7.013699-2.805479-14.027397-8.416438-19.638356-5.610959-5.610959-12.624658-9.819178-21.041096-15.430137-8.416438-4.208219-18.235616-9.819178-29.457534-15.430137-7.013699-2.805479-14.027397-7.013699-22.443836-12.624658-8.416438-4.208219-15.430137-9.819178-23.846575-16.832877-7.013699-7.013699-14.027397-15.430137-18.235617-25.249315-4.208219-9.819178-7.013699-21.041096-7.013698-35.068493 0-26.652055 8.416438-47.693151 26.652054-63.123287 18.235616-15.430137 43.484932-22.443836 74.345206-22.443836 15.430137 0 30.860274 1.40274 44.887671 5.610959 14.027397 4.208219 29.457534 8.416438 44.887671 15.430137l-21.041096 49.09589c-14.027397-5.610959-26.652055-9.819178-36.471233-12.624657-11.221918-2.805479-22.443836-4.208219-33.665753-4.208219-12.624658 0-21.041096 2.805479-28.054794 8.416438-7.013699 5.610959-9.819178 12.624658-9.819179 22.443836 0 11.221918 4.208219 19.638356 14.027398 25.249315 9.819178 5.610959 23.846575 14.027397 42.082191 22.443835 15.430137 7.013699 28.054795 15.430137 39.276713 22.443836 11.221918 8.416438 19.638356 16.832877 25.249315 28.054794 7.013699 9.819178 9.819178 22.443836 9.819178 39.276713zM406.794521 673.315068H343.671233V426.432877h-81.358904v-53.30411h227.243835v53.30411h-81.358904V673.315068zM706.980822 673.315068H534.443836V373.128767h172.536986v51.90137h-109.413699V490.958904h102.4v51.90137h-102.4v77.150685h109.413699V673.315068zM865.490411 373.128767c39.276712 0 67.331507 8.416438 84.164384 25.249315 18.235616 16.832877 26.652055 39.276712 26.652054 68.734247 0 18.235616-4.208219 33.665753-11.221917 49.09589s-19.638356 28.054795-36.471233 36.471233c-16.832877 9.819178-40.679452 14.027397-68.734247 14.027397h-28.054794V673.315068h-63.123288V373.128767h96.789041z m-2.805479 51.90137h-29.457535v89.775342h21.041096c18.235616 0 32.263014-4.208219 42.082192-11.221917 11.221918-7.013699 15.430137-18.235616 15.430137-35.068494 1.40274-29.457534-15.430137-43.484932-49.09589-43.484931z" fill="#3160B1" p-id="1914"></path></svg>