<?xml version="1.0" standalone="no"?><!DOCTYPE svg PUBLIC "-//W3C//DTD SVG 1.1//EN" "http://www.w3.org/Graphics/SVG/1.1/DTD/svg11.dtd"><svg t="1601084303065" class="icon" viewBox="0 0 1024 1024" version="1.1" xmlns="http://www.w3.org/2000/svg" p-id="1786" xmlns:xlink="http://www.w3.org/1999/xlink" width="200" height="200"><defs><style type="text/css"></style></defs><path d="M230.049315 1021.194521c61.720548 0 119.232877-21.041096 158.509589-58.915069 39.276712-37.873973 63.123288-85.567123 63.123288-165.523288V224.438356c0-79.956164-23.846575-127.649315-63.123288-165.523288S291.769863 0 230.049315 0 109.413699 21.041096 70.136986 58.915068 7.013699 144.482192 7.013699 224.438356v572.317808c0 79.956164 23.846575 127.649315 63.123287 165.523288 39.276712 37.873973 98.191781 58.915068 159.912329 58.915069z m0-133.260274c-40.679452 0-74.345205-28.054795-74.345205-85.567124V218.827397c0-57.512329 33.665753-85.567123 74.345205-85.567123s72.942466 28.054795 72.942466 85.567123v583.539726c0 57.512329-32.263014 85.567123-72.942466 85.567124z m785.534247 122.038356v-133.260274h-280.547946L960.876712 444.668493c32.263014-61.720548 54.706849-145.884932 54.70685-218.827397 0-79.956164-26.652055-136.065753-65.928767-172.536986-40.679452-37.873973-93.983562-53.30411-154.30137-53.30411s-122.038356 21.041096-161.315069 58.915068-61.720548 85.567123-61.720548 165.523288v42.082192h148.690411v-47.693151c0-57.512329 33.665753-85.567123 74.345206-85.567123s71.539726 29.457534 71.539726 86.969863c0 72.942466-18.235616 136.065753-40.679452 178.147945L576.526027 883.726027v126.246576h439.057535z" fill="#15479E" opacity=".069" p-id="1787"></path><path d="M221.632877 590.553425c0 26.652055-9.819178 47.693151-29.457535 63.123287-19.638356 15.430137-46.290411 23.846575-81.358904 23.846576-32.263014 0-60.317808-5.610959-85.567123-18.235617v-58.915068c14.027397 5.610959 29.457534 11.221918 44.887671 16.832876 15.430137 5.610959 30.860274 8.416438 46.290411 8.416439 15.430137 0 26.652055-2.805479 33.665754-8.416439 7.013699-5.610959 9.819178-14.027397 9.819178-22.443835 0-7.013699-2.805479-14.027397-8.416439-19.638356-5.610959-5.610959-12.624658-9.819178-21.041095-15.430137-8.416438-4.208219-18.235616-9.819178-29.457535-15.430137-7.013699-2.805479-14.027397-7.013699-22.443835-12.624658-8.416438-4.208219-15.430137-9.819178-23.846576-16.832877-7.013699-7.013699-14.027397-15.430137-18.235616-25.249315-4.208219-9.819178-7.013699-21.041096-7.013699-35.068493 0-26.652055 8.416438-47.693151 26.652055-63.123287 18.235616-15.430137 43.484932-22.443836 74.345206-22.443836 15.430137 0 30.860274 1.40274 44.887671 5.610959 14.027397 4.208219 29.457534 8.416438 44.887671 15.430137l-21.041096 49.09589c-14.027397-5.610959-26.652055-9.819178-36.471233-12.624657-11.221918-2.805479-22.443836-4.208219-33.665753-4.208219-12.624658 0-21.041096 2.805479-28.054795 8.416438-7.013699 5.610959-9.819178 12.624658-9.819178 22.443836 0 11.221918 4.208219 19.638356 14.027397 25.249315 9.819178 5.610959 23.846575 14.027397 42.082192 22.443835 15.430137 7.013699 28.054795 15.430137 39.276713 22.443836 11.221918 8.416438 19.638356 16.832877 25.249315 28.054794 7.013699 9.819178 9.819178 22.443836 9.819178 39.276713zM392.767123 673.315068H329.643836V426.432877h-81.358904v-53.30411h227.243835v53.30411h-81.358904V673.315068zM692.953425 673.315068H520.416438V373.128767h172.536987v51.90137h-109.413699V490.958904h102.4v51.90137h-102.4v77.150685h109.413699V673.315068zM851.463014 373.128767c39.276712 0 67.331507 8.416438 84.164383 25.249315 18.235616 16.832877 26.652055 39.276712 26.652055 68.734247 0 18.235616-4.208219 33.665753-11.221918 49.09589s-19.638356 28.054795-36.471233 36.471233c-16.832877 9.819178-40.679452 14.027397-68.734246 14.027397h-28.054795V673.315068h-63.123287V373.128767h96.789041z m-2.80548 51.90137h-29.457534v89.775342h21.041096c18.235616 0 32.263014-4.208219 42.082192-11.221917 11.221918-7.013699 15.430137-18.235616 15.430137-35.068494 1.40274-29.457534-15.430137-43.484932-49.095891-43.484931z" fill="#3160B1" p-id="1788"></path></svg>